<mxfile host="app.diagrams.net" agent="Mozilla/5.0 (Windows NT 10.0; Win64; x64) AppleWebKit/537.36 (KHTML, like Gecko) Chrome/131.0.0.0 Safari/537.36" version="25.0.1">
  <diagram id="_Zeu2Und_BIN9iEwyCzT" name="Page-1">
    <mxGraphModel dx="2518" dy="3298" grid="1" gridSize="10" guides="1" tooltips="1" connect="1" arrows="1" fold="1" page="1" pageScale="1" pageWidth="1600" pageHeight="1200" math="0" shadow="0">
      <root>
        <mxCell id="0" />
        <mxCell id="1" parent="0" />
        <mxCell id="UZDIXkim0CPDH5q4cRDU-2" value="&lt;b&gt;&lt;font color=&quot;#990000&quot; style=&quot;font-size: 22px;&quot;&gt;mongodb&lt;/font&gt;&lt;/b&gt;" style="rounded=1;whiteSpace=wrap;html=1;verticalAlign=bottom;" parent="1" vertex="1">
          <mxGeometry x="2500" y="384" width="640" height="246" as="geometry" />
        </mxCell>
        <mxCell id="UZDIXkim0CPDH5q4cRDU-3" value="&lt;b style=&quot;font-size: 14px;&quot;&gt;&lt;font color=&quot;#ff9999&quot; style=&quot;font-size: 14px;&quot;&gt;app_data&lt;/font&gt;&lt;/b&gt;" style="shape=cylinder3;whiteSpace=wrap;html=1;boundedLbl=1;backgroundOutline=1;size=15;verticalAlign=bottom;fillColor=#ffcc99;strokeColor=#36393d;fillStyle=hatch;fontSize=14;" parent="1" vertex="1">
          <mxGeometry x="2750" y="414" width="140" height="165" as="geometry" />
        </mxCell>
        <mxCell id="UZDIXkim0CPDH5q4cRDU-4" value="&lt;b style=&quot;&quot;&gt;&lt;font color=&quot;#803e74&quot; style=&quot;font-size: 22px;&quot;&gt;app_admin:5000&lt;/font&gt;&lt;/b&gt;" style="rounded=1;whiteSpace=wrap;html=1;verticalAlign=top;" parent="1" vertex="1">
          <mxGeometry x="2500" y="-220" width="500" height="520" as="geometry" />
        </mxCell>
        <mxCell id="_a0-ylE22l1Moyt0WqdU-58" value="" style="shape=flexArrow;endArrow=classic;html=1;rounded=0;endWidth=183.47826086956522;endSize=58.78260869565217;width=233.0434782608696;fillColor=#b1ddf0;strokeColor=#10739e;entryX=0;entryY=0.5;entryDx=0;entryDy=0;" parent="1" edge="1">
          <mxGeometry width="50" height="50" relative="1" as="geometry">
            <mxPoint x="1610" y="480.5699999999995" as="sourcePoint" />
            <mxPoint x="1980" y="481" as="targetPoint" />
          </mxGeometry>
        </mxCell>
        <mxCell id="_a0-ylE22l1Moyt0WqdU-50" value="" style="rounded=1;whiteSpace=wrap;html=1;glass=0;arcSize=40;fillColor=none;strokeColor=#56517e;strokeWidth=5;" parent="1" vertex="1">
          <mxGeometry x="2531" y="-148" width="439" height="426.25" as="geometry" />
        </mxCell>
        <mxCell id="_a0-ylE22l1Moyt0WqdU-1" value="" style="image;sketch=0;aspect=fixed;html=1;points=[];align=center;fontSize=12;image=img/lib/mscae/Docker.svg;" parent="1" vertex="1">
          <mxGeometry x="1650" y="407.20000000000005" width="180" height="147.6" as="geometry" />
        </mxCell>
        <mxCell id="_a0-ylE22l1Moyt0WqdU-3" value="&lt;b style=&quot;font-size: 14px;&quot;&gt;&lt;font color=&quot;#ff9999&quot; style=&quot;font-size: 14px;&quot;&gt;app_credentials&lt;/font&gt;&lt;/b&gt;" style="shape=cylinder3;whiteSpace=wrap;html=1;boundedLbl=1;backgroundOutline=1;size=15;verticalAlign=bottom;fillColor=#ffcc99;strokeColor=#36393d;fillStyle=hatch;fontSize=14;" parent="1" vertex="1">
          <mxGeometry x="2600" y="415" width="130" height="165" as="geometry" />
        </mxCell>
        <mxCell id="_a0-ylE22l1Moyt0WqdU-5" value="users" style="shape=cylinder3;whiteSpace=wrap;html=1;boundedLbl=1;backgroundOutline=1;size=15;fontSize=14;" parent="1" vertex="1">
          <mxGeometry x="2632" y="457.5" width="60" height="80" as="geometry" />
        </mxCell>
        <mxCell id="_a0-ylE22l1Moyt0WqdU-51" value="Construction de l&#39;image flask" style="edgeStyle=orthogonalEdgeStyle;rounded=0;orthogonalLoop=1;jettySize=auto;html=1;entryX=0;entryY=0.5;entryDx=0;entryDy=0;fillColor=#d0cee2;strokeColor=#56517e;strokeWidth=4;verticalAlign=bottom;fontColor=#A680B8;fontSize=13;" parent="1" source="_a0-ylE22l1Moyt0WqdU-12" target="_a0-ylE22l1Moyt0WqdU-50" edge="1">
          <mxGeometry relative="1" as="geometry" />
        </mxCell>
        <mxCell id="_a0-ylE22l1Moyt0WqdU-12" value="Dockerfile.app_admin" style="rounded=1;whiteSpace=wrap;html=1;fillColor=#dae8fc;strokeColor=#6c8ebf;fontSize=12;" parent="1" vertex="1">
          <mxGeometry x="2181" y="34.5" width="120" height="60" as="geometry" />
        </mxCell>
        <mxCell id="_a0-ylE22l1Moyt0WqdU-13" value="init_db.py" style="rounded=1;whiteSpace=wrap;html=1;fillColor=#d0cee2;strokeColor=#56517e;fontSize=14;" parent="1" vertex="1">
          <mxGeometry x="2602" y="150.5" width="120" height="60" as="geometry" />
        </mxCell>
        <mxCell id="_a0-ylE22l1Moyt0WqdU-14" value="app.py" style="rounded=1;whiteSpace=wrap;html=1;fillColor=#d0cee2;strokeColor=#56517e;fontSize=14;" parent="1" vertex="1">
          <mxGeometry x="2763.5" y="150.5" width="120" height="60" as="geometry" />
        </mxCell>
        <mxCell id="_a0-ylE22l1Moyt0WqdU-15" value=".env" style="rounded=1;whiteSpace=wrap;html=1;fillColor=#dae8fc;strokeColor=#6c8ebf;fontSize=14;" parent="1" vertex="1">
          <mxGeometry x="1961" y="656" width="120" height="60" as="geometry" />
        </mxCell>
        <mxCell id="_a0-ylE22l1Moyt0WqdU-16" value="requirements.txt" style="rounded=1;whiteSpace=wrap;html=1;fillColor=#dae8fc;strokeColor=#6c8ebf;fontSize=14;" parent="1" vertex="1">
          <mxGeometry x="2181" y="-114" width="120" height="60" as="geometry" />
        </mxCell>
        <mxCell id="_a0-ylE22l1Moyt0WqdU-19" style="edgeStyle=orthogonalEdgeStyle;rounded=0;orthogonalLoop=1;jettySize=auto;html=1;curved=1;shape=flexArrow;fontSize=14;exitX=1;exitY=0.25;exitDx=0;exitDy=0;fillColor=#fad7ac;strokeColor=#b46504;" parent="1" source="_a0-ylE22l1Moyt0WqdU-17" target="UZDIXkim0CPDH5q4cRDU-4" edge="1">
          <mxGeometry relative="1" as="geometry">
            <Array as="points">
              <mxPoint x="2410" y="449" />
              <mxPoint x="2410" y="214" />
            </Array>
            <mxPoint x="2490" y="291" as="targetPoint" />
          </mxGeometry>
        </mxCell>
        <mxCell id="_a0-ylE22l1Moyt0WqdU-46" style="edgeStyle=orthogonalEdgeStyle;rounded=0;orthogonalLoop=1;jettySize=auto;html=1;entryX=0.5;entryY=1;entryDx=0;entryDy=0;fillColor=#d0cee2;strokeColor=#56517e;strokeWidth=1;shape=flexArrow;" parent="1" target="_a0-ylE22l1Moyt0WqdU-12" edge="1">
          <mxGeometry relative="1" as="geometry">
            <mxPoint x="2241" y="416" as="sourcePoint" />
          </mxGeometry>
        </mxCell>
        <mxCell id="_a0-ylE22l1Moyt0WqdU-17" value="docker-compose.yml" style="rounded=1;whiteSpace=wrap;html=1;fillColor=#dae8fc;strokeColor=#6c8ebf;fontSize=19;" parent="1" vertex="1">
          <mxGeometry x="1980" y="416" width="330" height="130" as="geometry" />
        </mxCell>
        <mxCell id="_a0-ylE22l1Moyt0WqdU-22" style="edgeStyle=orthogonalEdgeStyle;rounded=0;orthogonalLoop=1;jettySize=auto;html=1;entryX=0.5;entryY=0;entryDx=0;entryDy=0;entryPerimeter=0;strokeWidth=3;fillColor=#fad9d5;strokeColor=#ae4132;" parent="1" source="_a0-ylE22l1Moyt0WqdU-13" target="_a0-ylE22l1Moyt0WqdU-5" edge="1">
          <mxGeometry relative="1" as="geometry" />
        </mxCell>
        <mxCell id="_a0-ylE22l1Moyt0WqdU-25" value="&lt;font style=&quot;font-size: 19px;&quot;&gt;2&lt;/font&gt;" style="ellipse;whiteSpace=wrap;html=1;aspect=fixed;fillColor=none;strokeWidth=2;strokeColor=#FF6666;fontColor=#FF6666;fontSize=19;" parent="1" vertex="1">
          <mxGeometry x="2360" y="362.25" width="30" height="30" as="geometry" />
        </mxCell>
        <mxCell id="_a0-ylE22l1Moyt0WqdU-28" value="&lt;font style=&quot;font-size: 19px;&quot;&gt;3&lt;/font&gt;" style="ellipse;whiteSpace=wrap;html=1;aspect=fixed;fillColor=none;strokeWidth=2;strokeColor=#FF6666;fontColor=#FF6666;fontSize=19;" parent="1" vertex="1">
          <mxGeometry x="2615.5" y="322" width="30" height="30" as="geometry" />
        </mxCell>
        <mxCell id="_a0-ylE22l1Moyt0WqdU-48" value="" style="endArrow=classic;startArrow=classic;html=1;rounded=0;entryX=0.5;entryY=1;entryDx=0;entryDy=0;exitX=0.5;exitY=0;exitDx=0;exitDy=0;fillColor=#bac8d3;strokeColor=#23445d;strokeWidth=0;shape=flexArrow;" parent="1" source="_a0-ylE22l1Moyt0WqdU-12" target="_a0-ylE22l1Moyt0WqdU-16" edge="1">
          <mxGeometry width="50" height="50" relative="1" as="geometry">
            <mxPoint x="2326" y="43.5" as="sourcePoint" />
            <mxPoint x="2376" y="-6.5" as="targetPoint" />
          </mxGeometry>
        </mxCell>
        <mxCell id="_a0-ylE22l1Moyt0WqdU-52" value="" style="endArrow=classic;startArrow=classic;html=1;rounded=0;entryX=0.75;entryY=1;entryDx=0;entryDy=0;exitX=0.5;exitY=0;exitDx=0;exitDy=0;fillColor=#bac8d3;strokeColor=#23445d;strokeWidth=0;shape=flexArrow;" parent="1" source="_a0-ylE22l1Moyt0WqdU-15" edge="1">
          <mxGeometry width="50" height="50" relative="1" as="geometry">
            <mxPoint x="2053" y="666" as="sourcePoint" />
            <mxPoint x="2020.5" y="546" as="targetPoint" />
          </mxGeometry>
        </mxCell>
        <mxCell id="_a0-ylE22l1Moyt0WqdU-66" value="&lt;div style=&quot;color: rgb(204, 204, 204); font-family: Consolas, &amp;quot;Courier New&amp;quot;, monospace; text-align: left; white-space: pre;&quot;&gt;&lt;font style=&quot;font-size: 12px;&quot;&gt;&lt;span style=&quot;color: rgb(86, 156, 214);&quot;&gt;MONGO_ROOT_LOGIN&lt;/span&gt;=xxxxxxxxx&lt;/font&gt;&lt;/div&gt;&lt;div style=&quot;color: rgb(204, 204, 204); font-family: Consolas, &amp;quot;Courier New&amp;quot;, monospace; text-align: left; white-space: pre;&quot;&gt;&lt;font style=&quot;font-size: 12px;&quot;&gt;&lt;span style=&quot;color: rgb(86, 156, 214);&quot;&gt;MONGO_ROOT_PASSWORD&lt;/span&gt;=&lt;/font&gt;&lt;span style=&quot;background-color: initial;&quot;&gt;xxxxxxxxx&lt;/span&gt;&lt;/div&gt;&lt;div style=&quot;color: rgb(204, 204, 204); font-family: Consolas, &amp;quot;Courier New&amp;quot;, monospace; text-align: left; white-space: pre;&quot;&gt;&lt;font style=&quot;font-size: 12px;&quot;&gt;&lt;span style=&quot;color: rgb(86, 156, 214);&quot;&gt;FLASK_ADMIN_LOGIN&lt;/span&gt;=&lt;/font&gt;&lt;span style=&quot;background-color: initial;&quot;&gt;xxxxxxxxx&lt;/span&gt;&lt;/div&gt;&lt;div style=&quot;color: rgb(204, 204, 204); font-family: Consolas, &amp;quot;Courier New&amp;quot;, monospace; text-align: left; white-space: pre;&quot;&gt;&lt;font style=&quot;font-size: 12px;&quot;&gt;&lt;span style=&quot;color: rgb(86, 156, 214);&quot;&gt;FLASK_ADMIN_PASSWORD&lt;/span&gt;=&lt;/font&gt;&lt;span style=&quot;background-color: initial;&quot;&gt;xxxxxxxxx&lt;/span&gt;&lt;/div&gt;&lt;div style=&quot;color: rgb(204, 204, 204); font-family: Consolas, &amp;quot;Courier New&amp;quot;, monospace; text-align: left; white-space: pre;&quot;&gt;&lt;font style=&quot;font-size: 12px;&quot;&gt;&lt;span style=&quot;color: rgb(86, 156, 214);&quot;&gt;FLASK_USER_LOGIN&lt;/span&gt;=&lt;/font&gt;&lt;span style=&quot;background-color: initial;&quot;&gt;xxxxxxxxx&lt;/span&gt;&lt;/div&gt;&lt;div style=&quot;color: rgb(204, 204, 204); font-family: Consolas, &amp;quot;Courier New&amp;quot;, monospace; text-align: left; white-space: pre;&quot;&gt;&lt;font style=&quot;background-color: initial; text-align: center;&quot;&gt;&lt;span style=&quot;color: rgb(86, 156, 214);&quot;&gt;FLASK_USER_PASSWORD&lt;/span&gt;=&lt;/font&gt;&lt;span style=&quot;background-color: initial; text-align: center;&quot;&gt;xxxxxxxxx&lt;/span&gt;&lt;/div&gt;&lt;div style=&quot;color: rgb(204, 204, 204); font-family: Consolas, &amp;quot;Courier New&amp;quot;, monospace; white-space: pre;&quot;&gt;&lt;div style=&quot;text-align: left;&quot;&gt;&lt;font style=&quot;font-size: 12px;&quot;&gt;&lt;span style=&quot;color: rgb(86, 156, 214);&quot;&gt;FLASK_SECRET_KEY&lt;/span&gt;=&lt;/font&gt;&lt;span style=&quot;background-color: initial;&quot;&gt;XXXXXXXXXXXXXXXXXXXXX&lt;/span&gt;&lt;/div&gt;&lt;div style=&quot;text-align: left;&quot;&gt;&lt;font style=&quot;font-size: 12px;&quot;&gt;&lt;span style=&quot;color: rgb(86, 156, 214);&quot;&gt;FLASK_SECRET_KEY_FORM&lt;/span&gt;=&lt;/font&gt;&lt;span style=&quot;background-color: initial;&quot;&gt;XXXXXXXXXXXXXXXXXXXXX&lt;/span&gt;&lt;/div&gt;&lt;div style=&quot;text-align: left;&quot;&gt;&lt;font style=&quot;font-size: 12px;&quot;&gt;&lt;span style=&quot;color: rgb(86, 156, 214);&quot;&gt;API_KEY&lt;/span&gt;=&lt;/font&gt;&lt;span style=&quot;background-color: initial;&quot;&gt;XXXXXXXXXXXXXXXXXXXXX&lt;/span&gt;&lt;/div&gt;&lt;span style=&quot;background-color: initial;&quot;&gt;&lt;font style=&quot;font-size: 12px;&quot;&gt;&lt;/font&gt;&lt;/span&gt;&lt;/div&gt;&lt;div style=&quot;color: rgb(204, 204, 204); font-family: Consolas, &amp;quot;Courier New&amp;quot;, monospace; text-align: left; white-space: pre;&quot;&gt;&lt;font style=&quot;font-size: 12px;&quot;&gt;&lt;span style=&quot;color: rgb(86, 156, 214);&quot;&gt;KEY_AS&lt;/span&gt;=XXXXXXXXXXXXXXXXXXXXX&lt;/font&gt;&lt;/div&gt;&lt;div style=&quot;color: rgb(204, 204, 204); font-family: Consolas, &amp;quot;Courier New&amp;quot;, monospace; text-align: left; white-space: pre;&quot;&gt;&lt;font style=&quot;font-size: 12px;&quot;&gt;&lt;span style=&quot;color: rgb(86, 156, 214);&quot;&gt;KEY_VISUALCROSSING&lt;/span&gt;=&lt;/font&gt;&lt;span style=&quot;background-color: initial;&quot;&gt;XXXXXXXXXXXXXXXXXXXXX&lt;/span&gt;&lt;/div&gt;&lt;div style=&quot;color: rgb(204, 204, 204); font-family: Consolas, &amp;quot;Courier New&amp;quot;, monospace; text-align: left; white-space: pre;&quot;&gt;&lt;font style=&quot;font-size: 12px;&quot;&gt;&lt;span style=&quot;color: rgb(86, 156, 214);&quot;&gt;KEY_VISUALCROSSING_2&lt;/span&gt;=&lt;/font&gt;&lt;span style=&quot;background-color: initial;&quot;&gt;XXXXXXXXXXXXXXXXXXXXX&lt;/span&gt;&lt;/div&gt;&lt;div style=&quot;color: rgb(204, 204, 204); font-family: Consolas, &amp;quot;Courier New&amp;quot;, monospace; text-align: left; white-space: pre;&quot;&gt;&lt;font style=&quot;font-size: 12px;&quot;&gt;&lt;span style=&quot;color: rgb(86, 156, 214);&quot;&gt;CLIENT_ID_LH&lt;/span&gt;=&lt;/font&gt;&lt;span style=&quot;background-color: initial;&quot;&gt;XXXXXXXXXXXXXXXXXXXXX&lt;/span&gt;&lt;/div&gt;&lt;div style=&quot;color: rgb(204, 204, 204); font-family: Consolas, &amp;quot;Courier New&amp;quot;, monospace; text-align: left; white-space: pre;&quot;&gt;&lt;font style=&quot;font-size: 12px;&quot;&gt;&lt;span style=&quot;color: rgb(86, 156, 214);&quot;&gt;CLIENT_SECRET_LH&lt;/span&gt;=&lt;/font&gt;&lt;span style=&quot;background-color: initial;&quot;&gt;XXXXXXXXXXXXXXXXXXXXX&lt;/span&gt;&lt;/div&gt;" style="rounded=0;whiteSpace=wrap;html=1;strokeColor=#6c95ce;" parent="1" vertex="1">
          <mxGeometry x="1749" y="721" width="330" height="213" as="geometry" />
        </mxCell>
        <mxCell id="_a0-ylE22l1Moyt0WqdU-68" value="" style="sketch=0;pointerEvents=1;shadow=0;dashed=0;html=1;strokeColor=none;labelPosition=center;verticalLabelPosition=bottom;verticalAlign=top;outlineConnect=0;align=center;shape=mxgraph.office.security.lock_protected;fillColor=#2072B8;" parent="1" vertex="1">
          <mxGeometry x="2029" y="726" width="38" height="50" as="geometry" />
        </mxCell>
        <mxCell id="UZDIXkim0CPDH5q4cRDU-1" value="test_col" style="shape=cylinder3;whiteSpace=wrap;html=1;boundedLbl=1;backgroundOutline=1;size=15;fontSize=14;" parent="1" vertex="1">
          <mxGeometry x="2790.5" y="461" width="60" height="80" as="geometry" />
        </mxCell>
        <mxCell id="UZDIXkim0CPDH5q4cRDU-6" value="&lt;b style=&quot;&quot;&gt;&lt;font color=&quot;#803e74&quot; style=&quot;font-size: 22px;&quot;&gt;flask_app_form:5001&lt;/font&gt;&lt;/b&gt;" style="rounded=1;whiteSpace=wrap;html=1;verticalAlign=top;" parent="1" vertex="1">
          <mxGeometry x="2500.5" y="662" width="499.5" height="520" as="geometry" />
        </mxCell>
        <mxCell id="UZDIXkim0CPDH5q4cRDU-7" value="" style="rounded=1;whiteSpace=wrap;html=1;glass=0;arcSize=40;fillColor=none;strokeColor=#56517e;strokeWidth=5;" parent="1" vertex="1">
          <mxGeometry x="2531.5" y="734" width="439" height="426.25" as="geometry" />
        </mxCell>
        <mxCell id="UZDIXkim0CPDH5q4cRDU-9" value="app.py" style="rounded=1;whiteSpace=wrap;html=1;fillColor=#d0cee2;strokeColor=#56517e;fontSize=14;" parent="1" vertex="1">
          <mxGeometry x="2764" y="1032.5" width="120" height="60" as="geometry" />
        </mxCell>
        <mxCell id="UZDIXkim0CPDH5q4cRDU-10" value="&lt;font style=&quot;font-size: 14px;&quot;&gt;model&lt;/font&gt;" style="sketch=0;pointerEvents=1;shadow=0;dashed=0;html=1;strokeColor=#56517e;labelPosition=center;verticalLabelPosition=middle;verticalAlign=bottom;outlineConnect=0;align=center;shape=mxgraph.office.concepts.folder;fillColor=#d0cee2;fontSize=15;" parent="1" vertex="1">
          <mxGeometry x="2811" y="926.5" width="110" height="70" as="geometry" />
        </mxCell>
        <mxCell id="UZDIXkim0CPDH5q4cRDU-11" value="&lt;font style=&quot;font-size: 14px;&quot;&gt;test&lt;/font&gt;" style="sketch=0;pointerEvents=1;shadow=0;dashed=0;html=1;strokeColor=#56517e;labelPosition=center;verticalLabelPosition=middle;verticalAlign=bottom;outlineConnect=0;align=center;shape=mxgraph.office.concepts.folder;fillColor=#d0cee2;fontSize=15;" parent="1" vertex="1">
          <mxGeometry x="2756" y="891.5" width="110" height="70" as="geometry" />
        </mxCell>
        <mxCell id="UZDIXkim0CPDH5q4cRDU-12" value="&lt;span style=&quot;font-size: 14px;&quot;&gt;templates&lt;/span&gt;" style="sketch=0;pointerEvents=1;shadow=0;dashed=0;html=1;strokeColor=#56517e;labelPosition=center;verticalLabelPosition=middle;verticalAlign=bottom;outlineConnect=0;align=center;shape=mxgraph.office.concepts.folder;fillColor=#d0cee2;fontSize=15;" parent="1" vertex="1">
          <mxGeometry x="2701" y="856.5" width="110" height="70" as="geometry" />
        </mxCell>
        <mxCell id="UZDIXkim0CPDH5q4cRDU-13" value="&lt;span style=&quot;font-size: 14px;&quot;&gt;scripts&lt;/span&gt;" style="sketch=0;pointerEvents=1;shadow=0;dashed=0;html=1;strokeColor=#56517e;labelPosition=center;verticalLabelPosition=middle;verticalAlign=bottom;outlineConnect=0;align=center;shape=mxgraph.office.concepts.folder;fillColor=#d0cee2;fontSize=15;" parent="1" vertex="1">
          <mxGeometry x="2646" y="821.5" width="110" height="70" as="geometry" />
        </mxCell>
        <mxCell id="UZDIXkim0CPDH5q4cRDU-14" value="&lt;font style=&quot;font-size: 14px;&quot;&gt;functions&lt;/font&gt;" style="sketch=0;pointerEvents=1;shadow=0;dashed=0;html=1;strokeColor=#56517e;labelPosition=center;verticalLabelPosition=middle;verticalAlign=bottom;outlineConnect=0;align=center;shape=mxgraph.office.concepts.folder;fillColor=#d0cee2;fontSize=15;" parent="1" vertex="1">
          <mxGeometry x="2586" y="786.5" width="110" height="70" as="geometry" />
        </mxCell>
        <mxCell id="UZDIXkim0CPDH5q4cRDU-15" value="&lt;font style=&quot;font-size: 13px;&quot;&gt;Dockerfile.app_form&lt;/font&gt;" style="rounded=1;whiteSpace=wrap;html=1;fillColor=#dae8fc;strokeColor=#6c8ebf;fontSize=14;" parent="1" vertex="1">
          <mxGeometry x="2180" y="916.5" width="120" height="60" as="geometry" />
        </mxCell>
        <mxCell id="UZDIXkim0CPDH5q4cRDU-16" value="requirements.txt" style="rounded=1;whiteSpace=wrap;html=1;fillColor=#dae8fc;strokeColor=#6c8ebf;fontSize=14;" parent="1" vertex="1">
          <mxGeometry x="2180" y="1066" width="120" height="60" as="geometry" />
        </mxCell>
        <mxCell id="UZDIXkim0CPDH5q4cRDU-17" value="" style="endArrow=classic;startArrow=classic;html=1;rounded=0;entryX=0.5;entryY=1;entryDx=0;entryDy=0;exitX=0.5;exitY=0;exitDx=0;exitDy=0;fillColor=#bac8d3;strokeColor=#23445d;strokeWidth=0;shape=flexArrow;" parent="1" source="UZDIXkim0CPDH5q4cRDU-16" target="UZDIXkim0CPDH5q4cRDU-15" edge="1">
          <mxGeometry width="50" height="50" relative="1" as="geometry">
            <mxPoint x="2240.29" y="1065.5" as="sourcePoint" />
            <mxPoint x="2240.29" y="976.5" as="targetPoint" />
          </mxGeometry>
        </mxCell>
        <mxCell id="UZDIXkim0CPDH5q4cRDU-18" style="edgeStyle=orthogonalEdgeStyle;rounded=0;orthogonalLoop=1;jettySize=auto;html=1;fillColor=#d0cee2;strokeColor=#56517e;strokeWidth=1;shape=flexArrow;exitX=0.5;exitY=0;exitDx=0;exitDy=0;startArrow=block;endArrow=none;endFill=0;" parent="1" source="UZDIXkim0CPDH5q4cRDU-15" edge="1">
          <mxGeometry relative="1" as="geometry">
            <mxPoint x="2240" y="874" as="sourcePoint" />
            <mxPoint x="2240" y="546" as="targetPoint" />
          </mxGeometry>
        </mxCell>
        <mxCell id="UZDIXkim0CPDH5q4cRDU-19" value="Construction de l&#39;image flask" style="edgeStyle=orthogonalEdgeStyle;rounded=0;orthogonalLoop=1;jettySize=auto;html=1;entryX=0;entryY=0.5;entryDx=0;entryDy=0;fillColor=#d0cee2;strokeColor=#56517e;strokeWidth=4;verticalAlign=bottom;fontColor=#A680B8;fontSize=13;exitX=1;exitY=0.5;exitDx=0;exitDy=0;" parent="1" source="UZDIXkim0CPDH5q4cRDU-15" target="UZDIXkim0CPDH5q4cRDU-7" edge="1">
          <mxGeometry relative="1" as="geometry">
            <mxPoint x="2300" y="895.3899999999999" as="sourcePoint" />
            <mxPoint x="2530" y="895.3899999999999" as="targetPoint" />
          </mxGeometry>
        </mxCell>
        <mxCell id="UZDIXkim0CPDH5q4cRDU-20" style="edgeStyle=orthogonalEdgeStyle;rounded=0;orthogonalLoop=1;jettySize=auto;html=1;curved=1;shape=flexArrow;fontSize=14;exitX=1;exitY=0.75;exitDx=0;exitDy=0;fillColor=#fad7ac;strokeColor=#b46504;" parent="1" edge="1">
          <mxGeometry relative="1" as="geometry">
            <Array as="points">
              <mxPoint x="2481" y="484" />
            </Array>
            <mxPoint x="2310" y="483.5" as="sourcePoint" />
            <mxPoint x="2500" y="484" as="targetPoint" />
          </mxGeometry>
        </mxCell>
        <mxCell id="UZDIXkim0CPDH5q4cRDU-21" style="edgeStyle=orthogonalEdgeStyle;rounded=0;orthogonalLoop=1;jettySize=auto;html=1;strokeWidth=3;fillColor=#fad9d5;strokeColor=#ae4132;exitX=0.5;exitY=1;exitDx=0;exitDy=0;entryX=0.5;entryY=0;entryDx=0;entryDy=0;entryPerimeter=0;" parent="1" source="_a0-ylE22l1Moyt0WqdU-13" target="UZDIXkim0CPDH5q4cRDU-1" edge="1">
          <mxGeometry relative="1" as="geometry">
            <mxPoint x="2672" y="221" as="sourcePoint" />
            <mxPoint x="2820" y="354" as="targetPoint" />
          </mxGeometry>
        </mxCell>
        <mxCell id="UZDIXkim0CPDH5q4cRDU-22" value="&lt;b style=&quot;font-size: 14px;&quot;&gt;&lt;font color=&quot;#ff9999&quot; style=&quot;font-size: 14px;&quot;&gt;app_data_form&lt;/font&gt;&lt;/b&gt;" style="shape=cylinder3;whiteSpace=wrap;html=1;boundedLbl=1;backgroundOutline=1;size=15;verticalAlign=bottom;fillColor=#ffcc99;strokeColor=#36393d;fillStyle=hatch;fontSize=14;" parent="1" vertex="1">
          <mxGeometry x="2910" y="414" width="140" height="165" as="geometry" />
        </mxCell>
        <mxCell id="UZDIXkim0CPDH5q4cRDU-23" value="test_col" style="shape=cylinder3;whiteSpace=wrap;html=1;boundedLbl=1;backgroundOutline=1;size=15;fontSize=14;" parent="1" vertex="1">
          <mxGeometry x="2950.5" y="461" width="60" height="80" as="geometry" />
        </mxCell>
        <mxCell id="UZDIXkim0CPDH5q4cRDU-25" style="edgeStyle=orthogonalEdgeStyle;rounded=0;orthogonalLoop=1;jettySize=auto;html=1;strokeWidth=3;fillColor=#fad9d5;strokeColor=#ae4132;exitX=0.5;exitY=1;exitDx=0;exitDy=0;entryX=0.5;entryY=0;entryDx=0;entryDy=0;entryPerimeter=0;" parent="1" source="_a0-ylE22l1Moyt0WqdU-13" target="UZDIXkim0CPDH5q4cRDU-23" edge="1">
          <mxGeometry relative="1" as="geometry">
            <mxPoint x="2672" y="221" as="sourcePoint" />
            <mxPoint x="2831" y="471" as="targetPoint" />
          </mxGeometry>
        </mxCell>
        <mxCell id="UZDIXkim0CPDH5q4cRDU-34" style="edgeStyle=orthogonalEdgeStyle;rounded=0;orthogonalLoop=1;jettySize=auto;html=1;curved=1;shape=flexArrow;fontSize=14;fillColor=#fad7ac;strokeColor=#b46504;exitX=1.006;exitY=0.825;exitDx=0;exitDy=0;exitPerimeter=0;" parent="1" source="_a0-ylE22l1Moyt0WqdU-17" edge="1">
          <mxGeometry relative="1" as="geometry">
            <Array as="points">
              <mxPoint x="2410" y="523" />
              <mxPoint x="2410" y="774" />
            </Array>
            <mxPoint x="2340" y="524" as="sourcePoint" />
            <mxPoint x="2500" y="774" as="targetPoint" />
          </mxGeometry>
        </mxCell>
        <mxCell id="UZDIXkim0CPDH5q4cRDU-36" value="&lt;font style=&quot;font-size: 19px;&quot;&gt;1&lt;/font&gt;" style="ellipse;whiteSpace=wrap;html=1;aspect=fixed;fillColor=none;strokeWidth=2;strokeColor=#FF6666;fontColor=#FF6666;fontSize=19;" parent="1" vertex="1">
          <mxGeometry x="2450" y="507.5" width="30" height="30" as="geometry" />
        </mxCell>
        <mxCell id="lWhxhTKeM-RviDwSl1E1-1" value="&lt;font style=&quot;font-size: 19px;&quot;&gt;2&lt;/font&gt;" style="ellipse;whiteSpace=wrap;html=1;aspect=fixed;fillColor=none;strokeWidth=2;strokeColor=#FF6666;fontColor=#FF6666;fontSize=19;" vertex="1" parent="1">
          <mxGeometry x="2360" y="585" width="30" height="30" as="geometry" />
        </mxCell>
        <mxCell id="lWhxhTKeM-RviDwSl1E1-3" value="&lt;b style=&quot;&quot;&gt;&lt;font color=&quot;#803e74&quot; style=&quot;font-size: 22px;&quot;&gt;flask_app:5002&lt;/font&gt;&lt;/b&gt;" style="rounded=1;whiteSpace=wrap;html=1;verticalAlign=top;" vertex="1" parent="1">
          <mxGeometry x="2499" y="-783" width="500" height="520" as="geometry" />
        </mxCell>
        <mxCell id="lWhxhTKeM-RviDwSl1E1-4" value="" style="rounded=1;whiteSpace=wrap;html=1;glass=0;arcSize=40;fillColor=none;strokeColor=#56517e;strokeWidth=5;" vertex="1" parent="1">
          <mxGeometry x="2530" y="-711" width="439" height="426.25" as="geometry" />
        </mxCell>
        <mxCell id="lWhxhTKeM-RviDwSl1E1-5" value="Construction de l&#39;image flask" style="edgeStyle=orthogonalEdgeStyle;rounded=0;orthogonalLoop=1;jettySize=auto;html=1;entryX=0;entryY=0.5;entryDx=0;entryDy=0;fillColor=#d0cee2;strokeColor=#56517e;strokeWidth=4;verticalAlign=bottom;fontColor=#A680B8;fontSize=13;" edge="1" parent="1" source="lWhxhTKeM-RviDwSl1E1-6" target="lWhxhTKeM-RviDwSl1E1-4">
          <mxGeometry relative="1" as="geometry" />
        </mxCell>
        <mxCell id="lWhxhTKeM-RviDwSl1E1-6" value="Dockerfile.app" style="rounded=1;whiteSpace=wrap;html=1;fillColor=#dae8fc;strokeColor=#6c8ebf;fontSize=12;" vertex="1" parent="1">
          <mxGeometry x="2004" y="-528.5" width="120" height="60" as="geometry" />
        </mxCell>
        <mxCell id="lWhxhTKeM-RviDwSl1E1-8" value="app.py" style="rounded=1;whiteSpace=wrap;html=1;fillColor=#d0cee2;strokeColor=#56517e;fontSize=14;" vertex="1" parent="1">
          <mxGeometry x="2689" y="-430" width="120" height="60" as="geometry" />
        </mxCell>
        <mxCell id="lWhxhTKeM-RviDwSl1E1-9" value="requirements.txt" style="rounded=1;whiteSpace=wrap;html=1;fillColor=#dae8fc;strokeColor=#6c8ebf;fontSize=14;" vertex="1" parent="1">
          <mxGeometry x="2004" y="-677" width="120" height="60" as="geometry" />
        </mxCell>
        <mxCell id="lWhxhTKeM-RviDwSl1E1-10" style="edgeStyle=orthogonalEdgeStyle;rounded=0;orthogonalLoop=1;jettySize=auto;html=1;curved=1;shape=flexArrow;fontSize=14;fillColor=#fad7ac;strokeColor=#b46504;exitX=1;exitY=0.25;exitDx=0;exitDy=0;" edge="1" parent="1" target="lWhxhTKeM-RviDwSl1E1-3" source="_a0-ylE22l1Moyt0WqdU-17">
          <mxGeometry relative="1" as="geometry">
            <Array as="points">
              <mxPoint x="2409" y="449" />
              <mxPoint x="2409" y="-349" />
            </Array>
            <mxPoint x="2489" y="-272" as="targetPoint" />
            <mxPoint x="2410" y="210" as="sourcePoint" />
          </mxGeometry>
        </mxCell>
        <mxCell id="lWhxhTKeM-RviDwSl1E1-11" style="edgeStyle=orthogonalEdgeStyle;rounded=0;orthogonalLoop=1;jettySize=auto;html=1;entryX=0.5;entryY=1;entryDx=0;entryDy=0;fillColor=#d0cee2;strokeColor=#56517e;strokeWidth=1;shape=flexArrow;exitX=0.25;exitY=0;exitDx=0;exitDy=0;" edge="1" parent="1" target="lWhxhTKeM-RviDwSl1E1-6" source="_a0-ylE22l1Moyt0WqdU-17">
          <mxGeometry relative="1" as="geometry">
            <mxPoint x="2070" y="410" as="sourcePoint" />
          </mxGeometry>
        </mxCell>
        <mxCell id="lWhxhTKeM-RviDwSl1E1-16" value="" style="endArrow=classic;startArrow=classic;html=1;rounded=0;entryX=0.5;entryY=1;entryDx=0;entryDy=0;exitX=0.5;exitY=0;exitDx=0;exitDy=0;fillColor=#bac8d3;strokeColor=#23445d;strokeWidth=0;shape=flexArrow;" edge="1" parent="1" source="lWhxhTKeM-RviDwSl1E1-6" target="lWhxhTKeM-RviDwSl1E1-9">
          <mxGeometry width="50" height="50" relative="1" as="geometry">
            <mxPoint x="2149" y="-519.5" as="sourcePoint" />
            <mxPoint x="2199" y="-569.5" as="targetPoint" />
          </mxGeometry>
        </mxCell>
        <mxCell id="lWhxhTKeM-RviDwSl1E1-17" value="&lt;b style=&quot;&quot;&gt;&lt;font color=&quot;#803e74&quot; style=&quot;font-size: 22px;&quot;&gt;app_dash:8051&lt;/font&gt;&lt;/b&gt;" style="rounded=1;whiteSpace=wrap;html=1;verticalAlign=top;" vertex="1" parent="1">
          <mxGeometry x="2499.5" y="1223" width="499.5" height="520" as="geometry" />
        </mxCell>
        <mxCell id="lWhxhTKeM-RviDwSl1E1-18" value="" style="rounded=1;whiteSpace=wrap;html=1;glass=0;arcSize=40;fillColor=none;strokeColor=#56517e;strokeWidth=5;" vertex="1" parent="1">
          <mxGeometry x="2530.5" y="1295" width="439" height="426.25" as="geometry" />
        </mxCell>
        <mxCell id="lWhxhTKeM-RviDwSl1E1-25" value="&lt;font style=&quot;font-size: 13px;&quot;&gt;Dockerfile.app_dash&lt;/font&gt;" style="rounded=1;whiteSpace=wrap;html=1;fillColor=#dae8fc;strokeColor=#6c8ebf;fontSize=14;" vertex="1" parent="1">
          <mxGeometry x="2085" y="1477" width="120" height="60" as="geometry" />
        </mxCell>
        <mxCell id="lWhxhTKeM-RviDwSl1E1-26" value="requirements.txt" style="rounded=1;whiteSpace=wrap;html=1;fillColor=#dae8fc;strokeColor=#6c8ebf;fontSize=14;" vertex="1" parent="1">
          <mxGeometry x="2085" y="1626.5" width="120" height="60" as="geometry" />
        </mxCell>
        <mxCell id="lWhxhTKeM-RviDwSl1E1-27" value="" style="endArrow=classic;startArrow=classic;html=1;rounded=0;entryX=0.5;entryY=1;entryDx=0;entryDy=0;exitX=0.5;exitY=0;exitDx=0;exitDy=0;fillColor=#bac8d3;strokeColor=#23445d;strokeWidth=0;shape=flexArrow;" edge="1" parent="1" source="lWhxhTKeM-RviDwSl1E1-26" target="lWhxhTKeM-RviDwSl1E1-25">
          <mxGeometry width="50" height="50" relative="1" as="geometry">
            <mxPoint x="2145.29" y="1626" as="sourcePoint" />
            <mxPoint x="2145.29" y="1537" as="targetPoint" />
          </mxGeometry>
        </mxCell>
        <mxCell id="lWhxhTKeM-RviDwSl1E1-28" style="edgeStyle=orthogonalEdgeStyle;rounded=0;orthogonalLoop=1;jettySize=auto;html=1;fillColor=#d0cee2;strokeColor=#56517e;strokeWidth=1;shape=flexArrow;exitX=0.5;exitY=0;exitDx=0;exitDy=0;startArrow=block;endArrow=none;endFill=0;entryX=0.5;entryY=1;entryDx=0;entryDy=0;" edge="1" parent="1" source="lWhxhTKeM-RviDwSl1E1-25" target="_a0-ylE22l1Moyt0WqdU-17">
          <mxGeometry relative="1" as="geometry">
            <mxPoint x="2239" y="1541" as="sourcePoint" />
            <mxPoint x="2239" y="1213" as="targetPoint" />
          </mxGeometry>
        </mxCell>
        <mxCell id="lWhxhTKeM-RviDwSl1E1-29" value="Construction de l&#39;image flask" style="edgeStyle=orthogonalEdgeStyle;rounded=0;orthogonalLoop=1;jettySize=auto;html=1;entryX=0;entryY=0.5;entryDx=0;entryDy=0;fillColor=#d0cee2;strokeColor=#56517e;strokeWidth=4;verticalAlign=bottom;fontColor=#A680B8;fontSize=13;exitX=1;exitY=0.5;exitDx=0;exitDy=0;" edge="1" parent="1" source="lWhxhTKeM-RviDwSl1E1-25" target="lWhxhTKeM-RviDwSl1E1-18">
          <mxGeometry relative="1" as="geometry">
            <mxPoint x="2299" y="1456.3899999999999" as="sourcePoint" />
            <mxPoint x="2529" y="1456.3899999999999" as="targetPoint" />
          </mxGeometry>
        </mxCell>
        <mxCell id="lWhxhTKeM-RviDwSl1E1-30" style="edgeStyle=orthogonalEdgeStyle;rounded=0;orthogonalLoop=1;jettySize=auto;html=1;curved=1;shape=flexArrow;fontSize=14;fillColor=#fad7ac;strokeColor=#b46504;exitX=1;exitY=0.75;exitDx=0;exitDy=0;entryX=0;entryY=0.25;entryDx=0;entryDy=0;" edge="1" parent="1" source="_a0-ylE22l1Moyt0WqdU-17" target="lWhxhTKeM-RviDwSl1E1-17">
          <mxGeometry relative="1" as="geometry">
            <Array as="points">
              <mxPoint x="2410" y="514" />
              <mxPoint x="2410" y="1190" />
              <mxPoint x="2409" y="1353" />
            </Array>
            <mxPoint x="2311" y="1190" as="sourcePoint" />
            <mxPoint x="2499" y="1441" as="targetPoint" />
          </mxGeometry>
        </mxCell>
        <mxCell id="lWhxhTKeM-RviDwSl1E1-31" value="&lt;font style=&quot;font-size: 14px;&quot;&gt;test&lt;/font&gt;" style="sketch=0;pointerEvents=1;shadow=0;dashed=0;html=1;strokeColor=#56517e;labelPosition=center;verticalLabelPosition=middle;verticalAlign=bottom;outlineConnect=0;align=center;shape=mxgraph.office.concepts.folder;fillColor=#d0cee2;fontSize=15;" vertex="1" parent="1">
          <mxGeometry x="2728.5" y="-582" width="110" height="70" as="geometry" />
        </mxCell>
        <mxCell id="lWhxhTKeM-RviDwSl1E1-32" value="&lt;span style=&quot;font-size: 14px;&quot;&gt;model&lt;/span&gt;" style="sketch=0;pointerEvents=1;shadow=0;dashed=0;html=1;strokeColor=#56517e;labelPosition=center;verticalLabelPosition=middle;verticalAlign=bottom;outlineConnect=0;align=center;shape=mxgraph.office.concepts.folder;fillColor=#d0cee2;fontSize=15;" vertex="1" parent="1">
          <mxGeometry x="2673.5" y="-617" width="110" height="70" as="geometry" />
        </mxCell>
        <mxCell id="lWhxhTKeM-RviDwSl1E1-33" value="app.py" style="rounded=1;whiteSpace=wrap;html=1;fillColor=#d0cee2;strokeColor=#56517e;fontSize=14;" vertex="1" parent="1">
          <mxGeometry x="2682" y="1571" width="120" height="60" as="geometry" />
        </mxCell>
        <mxCell id="lWhxhTKeM-RviDwSl1E1-34" value="&lt;font style=&quot;font-size: 14px;&quot;&gt;test&lt;/font&gt;" style="sketch=0;pointerEvents=1;shadow=0;dashed=0;html=1;strokeColor=#56517e;labelPosition=center;verticalLabelPosition=middle;verticalAlign=bottom;outlineConnect=0;align=center;shape=mxgraph.office.concepts.folder;fillColor=#d0cee2;fontSize=15;" vertex="1" parent="1">
          <mxGeometry x="2721.5" y="1419" width="110" height="70" as="geometry" />
        </mxCell>
        <mxCell id="lWhxhTKeM-RviDwSl1E1-35" value="&lt;span style=&quot;font-size: 14px;&quot;&gt;model&lt;/span&gt;" style="sketch=0;pointerEvents=1;shadow=0;dashed=0;html=1;strokeColor=#56517e;labelPosition=center;verticalLabelPosition=middle;verticalAlign=bottom;outlineConnect=0;align=center;shape=mxgraph.office.concepts.folder;fillColor=#d0cee2;fontSize=15;" vertex="1" parent="1">
          <mxGeometry x="2666.5" y="1384" width="110" height="70" as="geometry" />
        </mxCell>
        <mxCell id="lWhxhTKeM-RviDwSl1E1-36" value="&lt;font style=&quot;font-size: 14px;&quot;&gt;model&lt;/font&gt;" style="sketch=0;pointerEvents=1;shadow=0;dashed=0;html=1;strokeColor=#56517e;labelPosition=center;verticalLabelPosition=middle;verticalAlign=bottom;outlineConnect=0;align=center;shape=mxgraph.office.concepts.folder;fillColor=#d0cee2;fontSize=15;" vertex="1" parent="1">
          <mxGeometry x="2813.5" y="50" width="110" height="70" as="geometry" />
        </mxCell>
        <mxCell id="lWhxhTKeM-RviDwSl1E1-37" value="&lt;font style=&quot;font-size: 14px;&quot;&gt;test&lt;/font&gt;" style="sketch=0;pointerEvents=1;shadow=0;dashed=0;html=1;strokeColor=#56517e;labelPosition=center;verticalLabelPosition=middle;verticalAlign=bottom;outlineConnect=0;align=center;shape=mxgraph.office.concepts.folder;fillColor=#d0cee2;fontSize=15;" vertex="1" parent="1">
          <mxGeometry x="2758.5" y="15" width="110" height="70" as="geometry" />
        </mxCell>
        <mxCell id="lWhxhTKeM-RviDwSl1E1-38" value="&lt;span style=&quot;font-size: 14px;&quot;&gt;templates&lt;/span&gt;" style="sketch=0;pointerEvents=1;shadow=0;dashed=0;html=1;strokeColor=#56517e;labelPosition=center;verticalLabelPosition=middle;verticalAlign=bottom;outlineConnect=0;align=center;shape=mxgraph.office.concepts.folder;fillColor=#d0cee2;fontSize=15;" vertex="1" parent="1">
          <mxGeometry x="2703.5" y="-20" width="110" height="70" as="geometry" />
        </mxCell>
        <mxCell id="lWhxhTKeM-RviDwSl1E1-39" value="&lt;span style=&quot;font-size: 14px;&quot;&gt;scripts&lt;/span&gt;" style="sketch=0;pointerEvents=1;shadow=0;dashed=0;html=1;strokeColor=#56517e;labelPosition=center;verticalLabelPosition=middle;verticalAlign=bottom;outlineConnect=0;align=center;shape=mxgraph.office.concepts.folder;fillColor=#d0cee2;fontSize=15;" vertex="1" parent="1">
          <mxGeometry x="2648.5" y="-55" width="110" height="70" as="geometry" />
        </mxCell>
        <mxCell id="lWhxhTKeM-RviDwSl1E1-40" value="&lt;font style=&quot;font-size: 14px;&quot;&gt;functions&lt;/font&gt;" style="sketch=0;pointerEvents=1;shadow=0;dashed=0;html=1;strokeColor=#56517e;labelPosition=center;verticalLabelPosition=middle;verticalAlign=bottom;outlineConnect=0;align=center;shape=mxgraph.office.concepts.folder;fillColor=#d0cee2;fontSize=15;" vertex="1" parent="1">
          <mxGeometry x="2588.5" y="-90" width="110" height="70" as="geometry" />
        </mxCell>
      </root>
    </mxGraphModel>
  </diagram>
</mxfile>
